<?xml version="1.0" encoding="utf-8"?>
<!-- Generator: Adobe Illustrator 25.4.1, SVG Export Plug-In . SVG Version: 6.00 Build 0)  -->
<svg version="1.1" id="Capa_1" xmlns="http://www.w3.org/2000/svg" xmlns:xlink="http://www.w3.org/1999/xlink" x="0px" y="0px"
	 viewBox="0 0 841.89 553.86" style="enable-background:new 0 0 841.89 553.86;" xml:space="preserve">
<style type="text/css">
	.st0{fill:#5B45FF;}
</style>
<g>
	<g>
		<path class="st0" d="M450.84,424.13c-4.3,0-8.14-1.05-11.52-3.15c-3.39-2.1-6.06-4.95-8.03-8.57c-1.97-3.61-2.96-7.66-2.96-12.15
			c0-4.49,0.98-8.54,2.96-12.15c1.97-3.61,4.65-6.47,8.03-8.57c3.38-2.1,7.23-3.15,11.52-3.15c4.12,0,7.87,0.83,11.26,2.49
			c3.38,1.66,5.96,3.92,7.73,6.77l-5.03,6.12c-1.41-2.04-3.37-3.76-5.87-5.16c-2.5-1.4-4.9-2.1-7.2-2.1c-2.83,0-5.34,0.69-7.55,2.05
			c-2.21,1.37-3.96,3.25-5.25,5.64c-1.3,2.39-1.94,5.07-1.94,8.04s0.68,5.64,2.03,8c1.35,2.36,3.15,4.24,5.39,5.64
			c2.24,1.4,4.71,2.1,7.42,2.1c4.77,0,9.09-2.33,12.98-6.99l5.03,6.12c-1.88,2.62-4.58,4.78-8.08,6.47
			C458.24,423.29,454.61,424.13,450.84,424.13z"/>
		<path class="st0" d="M477.5,423.26v-64.68h9.09v25.96c1.53-2.27,3.69-4.2,6.49-5.77c2.8-1.57,5.69-2.36,8.7-2.36
			c10.6,0,15.89,6.29,15.89,18.88v27.97h-9.09V395.9c0-7.87-3.27-11.63-9.8-11.28c-2.3,0-4.37,0.48-6.22,1.44
			c-1.85,0.96-3.31,2.26-4.37,3.89c-1.06,1.63-1.59,3.47-1.59,5.51v27.8H477.5z"/>
		<path class="st0" d="M546.99,424.13c-3.83,0-7.31-1.05-10.46-3.15c-3.15-2.1-5.67-4.95-7.55-8.57c-1.88-3.61-2.83-7.69-2.83-12.24
			c0-4.6,0.96-8.7,2.87-12.28c1.91-3.58,4.5-6.39,7.77-8.43c3.27-2.04,6.93-3.06,10.99-3.06c3.47,0,6.55,0.74,9.23,2.23
			c2.68,1.49,4.72,3.4,6.14,5.73v-6.99h9.18v45.89h-9.18v-7.08c-1.59,2.22-3.84,4.09-6.75,5.64
			C553.48,423.36,550.35,424.13,546.99,424.13z M549.37,415.83c2.77,0,5.21-0.67,7.33-2.01c2.12-1.34,3.78-3.19,4.99-5.55
			c1.21-2.36,1.81-5.05,1.81-8.09c0-2.97-0.6-5.62-1.81-7.95c-1.21-2.33-2.87-4.17-4.99-5.51c-2.12-1.34-4.56-2.01-7.33-2.01
			c-2.71,0-5.11,0.67-7.2,2.01c-2.09,1.34-3.74,3.18-4.94,5.51c-1.21,2.33-1.81,4.98-1.81,7.95c0,3.03,0.6,5.73,1.81,8.09
			c1.21,2.36,2.85,4.21,4.94,5.55C544.27,415.16,546.67,415.83,549.37,415.83z"/>
		<path class="st0" d="M584.16,423.26v-45.89h9.18v8.65c1.35-2.74,3.32-5.03,5.92-6.86c2.59-1.84,5.33-2.75,8.21-2.75
			c1,0,1.96,0.09,2.87,0.26c0.91,0.17,1.63,0.38,2.16,0.61l-2.38,9.79c-0.71-0.29-1.49-0.54-2.34-0.74
			c-0.85-0.2-1.69-0.31-2.52-0.31c-2.12,0-4.08,0.52-5.87,1.57c-1.8,1.05-3.25,2.48-4.37,4.28c-1.12,1.81-1.68,3.82-1.68,6.03v25.35
			H584.16z"/>
		<path class="st0" d="M638.29,443.36c-3.3,0-6.58-0.51-9.84-1.53c-3.27-1.02-5.9-2.35-7.9-3.98l3.36-6.99
			c1.77,1.34,3.96,2.42,6.58,3.23c2.62,0.82,5.22,1.22,7.81,1.22c9.83,0,14.75-4.6,14.75-13.81V416c-0.83,1.46-2.05,2.8-3.66,4.02
			c-1.62,1.22-3.44,2.22-5.47,2.97c-2.03,0.76-4.11,1.14-6.22,1.14c-4.41,0-8.34-1.03-11.79-3.1c-3.44-2.07-6.17-4.89-8.17-8.48
			c-2-3.58-3-7.68-3-12.28c0-4.6,0.98-8.7,2.96-12.28c1.97-3.58,4.68-6.41,8.12-8.48c3.44-2.07,7.31-3.1,11.61-3.1
			c3.24,0,6.27,0.73,9.09,2.19c2.83,1.46,5,3.12,6.53,4.98v-6.21h9.09v43.09c0,7.28-2.12,12.92-6.36,16.91
			C651.53,441.37,645.7,443.36,638.29,443.36z M638.64,415.83c2.88,0,5.44-0.67,7.68-2.01c2.24-1.34,3.97-3.18,5.21-5.51
			c1.24-2.33,1.85-5.01,1.85-8.04c0-3.03-0.63-5.73-1.9-8.09c-1.27-2.36-3-4.21-5.21-5.55c-2.21-1.34-4.75-2.01-7.64-2.01
			c-2.83,0-5.34,0.69-7.55,2.05c-2.21,1.37-3.94,3.23-5.21,5.59c-1.27,2.36-1.9,5.03-1.9,8s0.63,5.64,1.9,8
			c1.27,2.36,3,4.21,5.21,5.55C633.3,415.16,635.81,415.83,638.64,415.83z"/>
		<path class="st0" d="M695.59,424.13c-4.77,0-8.99-1.01-12.67-3.02c-3.68-2.01-6.56-4.76-8.65-8.26c-2.09-3.5-3.13-7.52-3.13-12.06
			c0-4.84,1.02-9.08,3.05-12.72c2.03-3.64,4.83-6.5,8.39-8.57c3.56-2.07,7.64-3.13,12.23-3.19c4,0.06,7.61,1.05,10.82,2.97
			c3.21,1.92,5.74,4.55,7.59,7.87c1.85,3.32,2.72,7.14,2.6,11.45l-0.09,3.85h-35.49c0.53,4.14,2.25,7.42,5.17,9.83
			c2.91,2.42,6.61,3.63,11.08,3.63c2.3,0,4.43-0.38,6.4-1.14c1.97-0.76,4.11-2.13,6.4-4.11l4.59,6.38c-2.18,2.1-4.94,3.8-8.3,5.11
			C702.21,423.48,698.88,424.13,695.59,424.13z M694.79,384.62c-7.95,0-12.69,3.55-14.22,10.66h25.96v-0.61
			c-0.18-1.92-0.83-3.64-1.94-5.16c-1.12-1.51-2.53-2.71-4.24-3.58C698.65,385.06,696.79,384.62,694.79,384.62z"/>
	</g>
	<path d="M494.81,332.02c-24.68,0-47.43-13.44-59.38-35.07c-3.12-5.65-1.07-12.76,4.58-15.88c5.65-3.12,12.76-1.07,15.88,4.58
		c7.83,14.19,22.75,23,38.92,23c11.45,0,22.33-4.35,30.62-12.25l0.37-0.36c4.62-4.5,12.02-4.41,16.52,0.21
		c4.5,4.62,4.41,12.02-0.21,16.52c-0.18,0.18-0.37,0.36-0.56,0.54C528.89,325.38,512.29,332.02,494.81,332.02z M563.55,267.45v-4.08
		c0-37.94-30.84-68.8-68.74-68.8c-28.6,0-54.51,18.02-64.46,44.85c-2.43,6.54,0.91,13.81,7.45,16.23
		c6.54,2.43,13.81-0.91,16.23-7.45c6.3-16.97,22.69-28.38,40.78-28.38c21.06,0,38.67,15.06,42.65,34.99h-46.75
		c-6.97,0-12.63,5.65-12.63,12.63s5.65,12.63,12.63,12.63h60.22C557.9,280.08,563.55,274.43,563.55,267.45z M692.96,313.32
		l0.55-0.53c4.63-4.5,4.73-11.9,0.23-16.52c-4.5-4.63-11.9-4.73-16.52-0.23l-0.38,0.37c-8.29,7.9-19.17,12.25-30.62,12.25
		c-16.17,0-31.08-8.81-38.92-23c-3.12-5.65-10.23-7.7-15.88-4.58c-5.65,3.12-7.7,10.23-4.58,15.88
		c11.95,21.63,34.7,35.07,59.38,35.07C663.7,332.02,680.29,325.38,692.96,313.32z M714.96,267.45v-4.08
		c0-37.94-30.84-68.8-68.74-68.8c-28.6,0-54.51,18.02-64.46,44.85c-2.43,6.54,0.91,13.81,7.45,16.23
		c6.54,2.43,13.81-0.91,16.23-7.45c6.3-16.97,22.69-28.38,40.78-28.38c21.06,0,38.67,15.06,42.65,34.99h-46.75
		c-6.97,0-12.63,5.65-12.63,12.63s5.65,12.63,12.63,12.63h60.22C709.31,280.08,714.96,274.43,714.96,267.45z M399.73,304.83
		c4.13-5.62,2.91-13.53-2.71-17.65c-5.62-4.13-13.53-2.91-17.65,2.71c-8.19,11.16-21.32,17.82-35.12,17.82s-26.93-6.66-35.12-17.82
		c-4.13-5.62-12.03-6.84-17.65-2.71c-5.62,4.13-6.84,12.03-2.71,17.65c12.93,17.62,33.67,28.13,55.48,28.13
		S386.8,322.45,399.73,304.83z M402.16,256.03c6.52-2.48,9.79-9.78,7.31-16.29c-4.91-12.91-13.5-23.94-24.85-31.9
		c-11.62-8.15-25.28-12.46-39.52-12.46c-14.18,0-27.8,4.28-39.39,12.37c-0.15,0.11-0.3,0.21-0.45,0.32v-65.61
		c0-6.97-5.65-12.63-12.63-12.63s-12.63,5.65-12.63,12.63v101.52c0,6.08,4.34,11.3,10.32,12.41c5.98,1.11,11.9-2.19,14.09-7.87
		c6.44-16.69,22.79-27.9,40.69-27.9c17.99,0,34.37,11.29,40.76,28.09c1.92,5.04,6.71,8.14,11.81,8.14
		C399.16,256.86,400.68,256.59,402.16,256.03z M192,332.02c-24.68,0-47.43-13.44-59.38-35.07c-3.12-5.65-1.07-12.76,4.58-15.88
		c5.65-3.12,12.76-1.07,15.88,4.58c7.83,14.19,22.75,23,38.92,23c11.45,0,22.33-4.35,30.62-12.25l0.37-0.36
		c4.62-4.5,12.02-4.41,16.52,0.21c4.5,4.62,4.41,12.02-0.21,16.52c-0.19,0.18-0.37,0.36-0.56,0.54
		C226.08,325.38,209.48,332.02,192,332.02z M260.75,267.45v-4.08c0-37.94-30.84-68.8-68.74-68.8c-28.6,0-54.51,18.02-64.46,44.85
		c-2.43,6.54,0.91,13.81,7.45,16.23c6.54,2.43,13.81-0.91,16.23-7.45c6.3-16.97,22.69-28.38,40.78-28.38
		c21.06,0,38.67,15.06,42.65,34.99H187.9c-6.97,0-12.63,5.65-12.63,12.63s5.65,12.63,12.63,12.63h60.22
		C255.09,280.08,260.75,274.43,260.75,267.45z"/>
</g>
</svg>
